# xmcd
#
# Track frame offsets:
#	150
#	11667
#	21128
#	32700
#	44967
#	57008
#	69974
#	80938
#	92132
#	104193
#	117165
#	129947
#	139910
#	151434
#	163096
#	174088
#	183969
#	194877
#	207430
#	217551
#	230403
#	244139
#
# Disc length: 3420 seconds
#
# Revision: 0
# Processed by: cddbd v1.5.2PL0 Copyright (c) Steve Scherf et al.
# Submitted via: audiograbber 1.83.01
#
DISCID=3b0d5a16
DTITLE=Various Artist - Nashville Stars On Tour - THE GERMAN LANGUAGE RECORDINGS
DYEAR=2007
DGENRE=Country
TTITLE0=Anita Kerr Singers - Jenny Darling
TTITLE1=Anita Kerr Singers - Singapur (La-Di-Da-Songs)
TTITLE2=Anita Kerr Singers - Bye, Bye Baby (Bye Bye Blackbird)
TTITLE3=Anita Kerr Singers - Cowboys Heimweh (Home On The Range)
TTITLE4=Bobby Bare - Rosalie
TTITLE5=Bobby Bare - Alle glauben dass ich glücklich bin
TTITLE6=Willie Nelson - Whisky Walzer
TTITLE7=Willie Nelson - Little Darling (Pretty Paper)
TTITLE8=Jim Ed Brown - I Heard From A Memory Last Night
TTITLE9=Bobby Bare - Good Old Tennessee
TTITLE10=Bobby Bare - Das Haus auf der Sierra
TTITLE11=Bobby Bare - Wilder Wolf und Brauner Bär (So ist das Leben)
TTITLE12=Bobby Bare - Molly Brown
TTITLE13=Anita Kerr Singers - Sentimental Cowboy
TTITLE14=Anita Kerr Singers - I'm Happy Baby
TTITLE15=Jim Ed Brown - Mickey
TTITLE16=Jim Ed Brown - Renate und Karin
TTITLE17=Jim Ed Brown - Golden Girl
TTITLE18=Jim Ed Brown - Schöne Mädchen, die können nicht treu sein
TTITLE19=Stu Phillips - Irgendwann sagt man Goodbye
TTITLE20=Stu Phillips - Ol' Kentucky
TTITLE21=Skeeter Davis - G.I. Johnny
EXTD=
EXTT0=
EXTT1=
EXTT2=
EXTT3=
EXTT4=
EXTT5=
EXTT6=
EXTT7=
EXTT8=
EXTT9=
EXTT10=
EXTT11=
EXTT12=
EXTT13=
EXTT14=
EXTT15=
EXTT16=
EXTT17=
EXTT18=
EXTT19=
EXTT20=
EXTT21=
PLAYORDER=
